<svg xmlns="http://www.w3.org/2000/svg" viewBox="0 0 789.52 300.47"><defs><style>.cls-1{fill:none;stroke:#000;stroke-linecap:round;stroke-miterlimit:10;stroke-width:17.01px;}</style></defs><title>Asset 5</title><g id="Layer_2" data-name="Layer 2"><g id="АЛФАВИТ"><path class="cls-1" d="M327.46,138.49h83.72c37.25,0,67.45,30.42,67.45,67.95V224c0,37.53-30.2,68-67.45,68H340.83a26.26,26.26,0,0,1-26.16-26.36V36A26.26,26.26,0,0,1,340.83,9.61h69.48a52.23,52.23,0,0,1,52,52.43V83.15a52.63,52.63,0,0,1-32.56,48.75l-4.65,1.9"/><path class="cls-1" d="M779.48,39.22A139.47,139.47,0,0,0,692,8.5C614.3,8.5,551.31,72,551.31,150.24S614.3,292,692,292a139.48,139.48,0,0,0,89-32"/><path class="cls-1" d="M8.5,292,103.87,26.71C112,4.11,140.5,3.84,149,26.28L249.21,292"/><line class="cls-1" x1="45.71" y1="204.1" x2="208.51" y2="204.1"/></g></g></svg>